<?xml version="1.0" encoding="UTF-8" standalone="no"?>
<!DOCTYPE svg PUBLIC "-//W3C//DTD SVG 1.1//EN" "http://www.w3.org/Graphics/SVG/1.1/DTD/svg11.dtd">
<svg xmlns="http://www.w3.org/2000/svg" xmlns:xl="http://www.w3.org/1999/xlink" xmlns:dc="http://purl.org/dc/elements/1.1/" version="1.1" viewBox="211 157 592 527" width="592" height="527">
  <defs/>
  <metadata> Produced by OmniGraffle 7.21\n2022-11-08 00:35:37 +0000</metadata>
  <g id="Canvas_1" stroke-opacity="1" stroke-dasharray="none" fill="none" stroke="none" fill-opacity="1">
    <title>Canvas 1</title>
    <g id="Canvas_1_Layer_1">
      <title>Layer 1</title>
      <g id="Group_10">
        <g id="Graphic_2">
          <path d="M 357 339.02 L 457.02 339.02 L 457.02 239 L 556.98 239 L 556.98 339.02 L 657 339.02 L 657 438.98 L 556.98 438.98 L 556.98 539 L 457.02 539 L 457.02 438.98 L 357 438.98 Z" fill="red"/>
          <path d="M 357 339.02 L 457.02 339.02 L 457.02 239 L 556.98 239 L 556.98 339.02 L 657 339.02 L 657 438.98 L 556.98 438.98 L 556.98 539 L 457.02 539 L 457.02 438.98 L 357 438.98 Z" stroke="gray" stroke-linecap="round" stroke-linejoin="round" stroke-width="1"/>
        </g>
        <g id="Line_5">
          <path d="M 212.95245 280.93304 C 212.95245 280.93304 335.58752 183.87018 502.1978 185.00996 C 668.8081 186.14974 801.0475 284.9562 801.0475 284.9562" stroke="black" stroke-linecap="round" stroke-linejoin="round" stroke-width="3"/>
        </g>
        <g id="Graphic_7">
          <rect x="393.819" y="157.9259" width="222.1582" height="73" fill="white"/>
          <text transform="translate(398.819 160.4259)" fill="#003776">
            <tspan font-family="Papyrus" font-size="44" fill="#003776" x="0" y="41">ACME, inc</tspan>
          </text>
        </g>
        <g id="Line_9">
          <path d="M 212.95245 547.0741 C 212.95245 547.0741 319.104 637.0772 485.7143 638.21696 C 652.3246 639.35674 801.0475 551.0973 801.0475 551.0973" stroke="black" stroke-linecap="round" stroke-linejoin="round" stroke-width="3"/>
        </g>
        <g id="Graphic_8">
          <rect x="400.10564" y="610.6089" width="222.1582" height="73" fill="white"/>
          <text transform="translate(405.10564 613.1089)" fill="#003776">
            <tspan font-family="Papyrus" font-size="44" fill="#003776" x=".515625" y="41">Consulting</tspan>
          </text>
        </g>
      </g>
    </g>
  </g>
</svg>
